<?xml version="1.0" encoding="UTF-8" standalone="no"?>
<svg
   version="1.1"
   x="0px"
   y="0px"
   viewBox="0 0 20 20"
   xml:space="preserve"
   id="svg2"
   sodipodi:docname="calender.svg"
   width="20"
   height="20"
   inkscape:version="1.3 (0e150ed6c4, 2023-07-21)"
   xmlns:inkscape="http://www.inkscape.org/namespaces/inkscape"
   xmlns:sodipodi="http://sodipodi.sourceforge.net/DTD/sodipodi-0.dtd"
   xmlns="http://www.w3.org/2000/svg"
   xmlns:svg="http://www.w3.org/2000/svg"
   xmlns:rdf="http://www.w3.org/1999/02/22-rdf-syntax-ns#"
   xmlns:cc="http://creativecommons.org/ns#"
   xmlns:dc="http://purl.org/dc/elements/1.1/"><defs
     id="defs2" /><sodipodi:namedview
     id="namedview2"
     pagecolor="#505050"
     bordercolor="#eeeeee"
     borderopacity="1"
     inkscape:showpageshadow="0"
     inkscape:pageopacity="0"
     inkscape:pagecheckerboard="0"
     inkscape:deskcolor="#d1d1d1"
     inkscape:zoom="28.166667"
     inkscape:cx="10.011834"
     inkscape:cy="13.011834"
     inkscape:window-width="1920"
     inkscape:window-height="1043"
     inkscape:window-x="0"
     inkscape:window-y="0"
     inkscape:window-maximized="1"
     inkscape:current-layer="svg2" /><title
     id="title1">Calender</title><path
     d="M 17,2 H 16 V 1 C 16,0.4 15.6,0 15,0 14.4,0 14,0.4 14,1 V 2 H 6 V 1 C 6,0.4 5.6,0 5,0 4.4,0 4,0.4 4,1 V 2 H 3 C 1.3,2 0,3.3 0,5 v 12 c 0,1.7 1.3,3 3,3 h 14 c 1.7,0 3,-1.3 3,-3 V 5 C 20,3.3 18.7,2 17,2 Z M 3,4 H 4 C 4,4.6 4.4,5 5,5 5.6,5 6,4.6 6,4 h 8 c 0,0.6 0.4,1 1,1 0.6,0 1,-0.4 1,-1 h 1 c 0.6,0 1,0.4 1,1 V 6 H 2 V 5 C 2,4.4 2.4,4 3,4 Z M 17,18 H 3 C 2.4,18 2,17.6 2,17 V 8 h 16 v 9 c 0,0.6 -0.4,1 -1,1 z M 6.5,10 c 0,0.6 -0.4,1 -1,1 h -1 c -0.6,0 -1,-0.4 -1,-1 0,-0.6 0.4,-1 1,-1 h 1 c 0.6,0 1,0.4 1,1 z m 5,0 c 0,0.6 -0.4,1 -1,1 h -1 c -0.6,0 -1,-0.4 -1,-1 0,-0.6 0.4,-1 1,-1 h 1 c 0.6,0 1,0.4 1,1 z m 5,0 c 0,0.6 -0.4,1 -1,1 h -1 c -0.6,0 -1,-0.4 -1,-1 0,-0.6 0.4,-1 1,-1 h 1 c 0.6,0 1,0.4 1,1 z m -10,6 c 0,0.6 -0.4,1 -1,1 h -1 c -0.6,0 -1,-0.4 -1,-1 0,-0.6 0.4,-1 1,-1 h 1 c 0.6,0 1,0.4 1,1 z m 0,-3 c 0,0.6 -0.4,1 -1,1 h -1 c -0.6,0 -1,-0.4 -1,-1 0,-0.6 0.4,-1 1,-1 h 1 c 0.6,0 1,0.4 1,1 z m 5,3 c 0,0.6 -0.4,1 -1,1 h -1 c -0.6,0 -1,-0.4 -1,-1 0,-0.6 0.4,-1 1,-1 h 1 c 0.6,0 1,0.4 1,1 z m 5,0 c 0,0.6 -0.4,1 -1,1 h -1 c -0.6,0 -1,-0.4 -1,-1 0,-0.6 0.4,-1 1,-1 h 1 c 0.6,0 1,0.4 1,1 z m 0,-3 c 0,0.6 -0.4,1 -1,1 h -1 c -0.6,0 -1,-0.4 -1,-1 0,-0.6 0.4,-1 1,-1 h 1 c 0.6,0 1,0.4 1,1 z m -5,0 c 0,0.6 -0.4,1 -1,1 h -1 c -0.6,0 -1,-0.4 -1,-1 0,-0.6 0.4,-1 1,-1 h 1 c 0.6,0 1,0.4 1,1 z"
     id="path1" /><text
     x="-2"
     y="37"
     fill="#000000"
     font-size="5px"
     font-weight="bold"
     font-family="'Helvetica Neue', Helvetica, Arial-Unicode, Arial, Sans-serif"
     id="text1">Created by Bahri Galeri</text><text
     x="-2"
     y="42"
     fill="#000000"
     font-size="5px"
     font-weight="bold"
     font-family="'Helvetica Neue', Helvetica, Arial-Unicode, Arial, Sans-serif"
     id="text2">from the Noun Project</text><metadata
     id="metadata2"><rdf:RDF><cc:Work
         rdf:about=""><dc:title>Calender</dc:title></cc:Work></rdf:RDF></metadata></svg>
