<?xml version="1.0" encoding="UTF-8" standalone="no"?>
<svg
   xml:space="preserve"
   version="1.1"
   style="image-rendering:optimizeQuality;shape-rendering:geometricPrecision;text-rendering:geometricPrecision"
   viewBox="0 0 803.34756 770.41416"
   x="0px"
   y="0px"
   fill-rule="evenodd"
   clip-rule="evenodd"
   id="svg2"
   sodipodi:docname="star.svg"
   width="803.34753"
   height="770.41412"
   inkscape:version="1.3 (0e150ed6c4, 2023-07-21)"
   xmlns:inkscape="http://www.inkscape.org/namespaces/inkscape"
   xmlns:sodipodi="http://sodipodi.sourceforge.net/DTD/sodipodi-0.dtd"
   xmlns="http://www.w3.org/2000/svg"
   xmlns:svg="http://www.w3.org/2000/svg"><sodipodi:namedview
     id="namedview2"
     pagecolor="#505050"
     bordercolor="#eeeeee"
     borderopacity="1"
     inkscape:showpageshadow="0"
     inkscape:pageopacity="0"
     inkscape:pagecheckerboard="0"
     inkscape:deskcolor="#d1d1d1"
     inkscape:zoom="0.79843152"
     inkscape:cx="402.03824"
     inkscape:cy="491.58881"
     inkscape:window-width="1920"
     inkscape:window-height="1043"
     inkscape:window-x="0"
     inkscape:window-y="0"
     inkscape:window-maximized="1"
     inkscape:current-layer="svg2" /><defs
     id="defs1"><style
       type="text/css"
       id="style1">&#10;   &#10;    .fil0 {fill:black;fill-rule:nonzero}&#10;   &#10;  </style></defs><g
     id="g1"
     transform="translate(-21.657384,-38.12)"><path
       class="fil0"
       d="m 481.23,73.23 85.29,162.85 c 2.37,4.53 5.54,8.24 9.32,10.98 3.77,2.74 8.28,4.61 13.33,5.46 l 181.23,30.79 c 12.23,2.07 23.13,7.25 31.96,14.87 8.78,7.6 15.47,17.6 19.3,29.39 3.85,11.78 4.33,23.81 1.68,35.13 -2.64,11.32 -8.41,21.88 -17.07,30.74 L 677.41,525.2 c -3.43,3.58 -5.89,7.63 -7.29,11.97 -1.43,4.4 -1.8,9.28 -1.06,14.41 l 26.74,181.88 c 1.79,12.18 0.23,24.13 -4.3,34.92 -4.54,10.77 -12,20.23 -21.99,27.48 l -1.18,0.78 c -9.77,6.81 -20.65,10.74 -31.74,11.67 -11.54,0.98 -23.36,-1.25 -34.48,-6.76 L 437.38,719.93 c -4.58,-2.27 -9.34,-3.42 -14.04,-3.42 -4.7,0 -9.45,1.15 -14.03,3.42 l -164.75,81.62 c -11.12,5.51 -22.94,7.74 -34.48,6.76 -11.53,-0.97 -22.82,-5.16 -32.89,-12.49 -10.02,-7.21 -17.48,-16.67 -22.02,-27.44 -4.53,-10.79 -6.09,-22.74 -4.3,-34.92 l 26.8,-182.33 c 0.65,-4.98 0.26,-9.69 -1.12,-13.96 -1.44,-4.45 -3.99,-8.59 -7.56,-12.24 L 40.4,393.44 c -8.66,-8.86 -14.43,-19.42 -17.08,-30.75 -2.65,-11.32 -2.16,-23.34 1.67,-35.13 l 0.34,-0.94 c 3.87,-11.37 10.43,-21.05 18.98,-28.44 8.82,-7.61 19.72,-12.8 31.95,-14.87 L 257.5,252.52 c 5.05,-0.85 9.56,-2.72 13.33,-5.46 3.78,-2.74 6.95,-6.45 9.32,-10.98 L 365.45,73.23 C 371.23,62.2 379.5,53.41 389.42,47.42 l 1.43,-0.77 c 9.72,-5.54 20.78,-8.53 32.49,-8.53 12.29,0 23.86,3.28 33.9,9.35 9.96,5.95 18.23,14.73 23.99,25.76 z M 536.62,251.7 451.33,88.85 C 448.54,83.51 444.56,79.26 439.81,76.4 435.17,73.52 429.55,72 423.34,72 c -5.78,0 -11.05,1.32 -15.5,3.77 l -0.96,0.63 c -4.75,2.87 -8.74,7.11 -11.53,12.45 l -85.3,162.85 c -4.88,9.32 -11.45,16.98 -19.38,22.74 -7.94,5.78 -17.25,9.66 -27.61,11.42 L 81.82,316.65 c -5.99,1.01 -11.25,3.48 -15.41,7.07 -4.03,3.48 -7.17,8.13 -9.06,13.62 l -0.2,0.68 c -1.88,5.8 -2.14,11.62 -0.89,16.99 1.26,5.39 4.09,10.5 8.36,14.87 l 128.52,131.43 c 7.31,7.5 12.55,16.09 15.57,25.4 3,9.21 3.84,19.03 2.45,29.15 l -26.81,182.5 c -0.89,6.09 -0.2,11.88 1.92,16.92 2.13,5.05 5.77,9.6 10.73,13.2 4.85,3.59 10.3,5.63 15.86,6.09 5.55,0.47 11.3,-0.62 16.74,-3.32 l 164.75,-81.62 c 9.39,-4.65 19.19,-7 28.99,-7 9.81,0 19.61,2.35 29,7 l 164.73,81.62 c 5.44,2.7 11.19,3.79 16.74,3.32 5.23,-0.43 10.37,-2.27 15,-5.43 l 0.86,-0.66 c 4.96,-3.6 8.6,-8.15 10.73,-13.2 2.12,-5.04 2.81,-10.83 1.92,-16.92 L 635.59,556.48 c -1.5,-10.37 -0.68,-20.4 2.37,-29.77 2.97,-9.15 8.06,-17.59 15.19,-25 l 128.9,-131.83 c 4.27,-4.36 7.1,-9.48 8.35,-14.86 1.26,-5.38 1,-11.21 -0.88,-17 -1.86,-5.83 -5.08,-10.69 -9.26,-14.3 -4.16,-3.59 -9.42,-6.05 -15.42,-7.07 L 583.61,285.86 C 573.25,284.1 563.94,280.22 556,274.44 548.07,268.68 541.5,261.02 536.62,251.7 Z"
       id="path1" /></g><text
     x="-21.657383"
     y="823.53998"
     fill="#000000"
     font-size="5px"
     font-weight="bold"
     font-family="'Helvetica Neue', Helvetica, Arial-Unicode, Arial, Sans-serif"
     id="text1">Created by Inggit Jaya</text><text
     x="-21.657383"
     y="828.53998"
     fill="#000000"
     font-size="5px"
     font-weight="bold"
     font-family="'Helvetica Neue', Helvetica, Arial-Unicode, Arial, Sans-serif"
     id="text2">from the Noun Project</text></svg>
